<svg xmlns="http://www.w3.org/2000/svg" version="1.1" xmlns:xlink="http://www.w3.org/1999/xlink" xmlns:svgjs="http://svgjs.com/svgjs" width="1440" height="560" preserveAspectRatio="none" viewBox="0 0 1440 560"><g mask="url(&quot;#SvgjsMask1003&quot;)" fill="none"><rect width="1440" height="560" x="0" y="0" fill="rgba(152, 199, 150, 1)"></rect><path d="M56.9 -73.63L121.85 -36.13L121.85 38.87L56.9 76.37L-8.05 38.87L-8.05 -36.13zM56.9 151.37L121.85 188.87L121.85 263.87L56.9 301.37L-8.05 263.87L-8.05 188.87zM121.85 488.87L186.81 526.37L186.81 601.37L121.85 638.87L56.9 601.37L56.9 526.37zM251.76 263.87L316.71 301.37L316.71 376.37L251.76 413.87L186.81 376.37L186.81 301.37zM316.71 -73.63L381.67 -36.13L381.67 38.87L316.71 76.37L251.76 38.87L251.76 -36.13zM316.71 376.37L381.67 413.87L381.67 488.87L316.71 526.37L251.76 488.87L251.76 413.87zM576.53 -73.63L641.48 -36.13L641.48 38.87L576.53 76.37L511.58 38.87L511.58 -36.13zM576.53 376.37L641.48 413.87L641.48 488.87L576.53 526.37L511.58 488.87L511.58 413.87zM706.44 -73.63L771.39 -36.13L771.39 38.87L706.44 76.37L641.48 38.87L641.48 -36.13zM706.44 151.37L771.39 188.87L771.39 263.87L706.44 301.37L641.48 263.87L641.48 188.87zM836.34 -73.63L901.3 -36.13L901.3 38.87L836.34 76.37L771.39 38.87L771.39 -36.13zM966.25 -73.63L1031.21 -36.13L1031.21 38.87L966.25 76.37L901.3 38.87L901.3 -36.13zM1096.16 -73.63L1161.11 -36.13L1161.11 38.87L1096.16 76.37L1031.21 38.87L1031.21 -36.13zM1161.11 263.87L1226.07 301.37L1226.07 376.37L1161.11 413.87L1096.16 376.37L1096.16 301.37zM1096.16 376.37L1161.11 413.87L1161.11 488.87L1096.16 526.37L1031.21 488.87L1031.21 413.87zM1226.07 -73.63L1291.02 -36.13L1291.02 38.87L1226.07 76.37L1161.11 38.87L1161.11 -36.13zM1291.02 38.87L1355.97 76.37L1355.97 151.37L1291.02 188.87L1226.07 151.37L1226.07 76.37zM1226.07 151.37L1291.02 188.87L1291.02 263.87L1226.07 301.37L1161.11 263.87L1161.11 188.87zM1291.02 488.87L1355.97 526.37L1355.97 601.37L1291.02 638.87L1226.07 601.37L1226.07 526.37zM1355.98 151.37L1420.93 188.87L1420.93 263.87L1355.98 301.37L1291.02 263.87L1291.02 188.87zM1420.93 263.87L1485.88 301.37L1485.88 376.37L1420.93 413.87L1355.98 376.37L1355.98 301.37zM1420.93 488.87L1485.88 526.37L1485.88 601.37L1420.93 638.87L1355.98 601.37L1355.98 526.37zM1485.88 -73.63L1550.84 -36.13L1550.84 38.87L1485.88 76.37L1420.93 38.87L1420.93 -36.13zM1485.88 151.37L1550.84 188.87L1550.84 263.87L1485.88 301.37L1420.93 263.87L1420.93 188.87zM1550.84 488.87L1615.79 526.37L1615.79 601.37L1550.84 638.87L1485.88 601.37L1485.88 526.37z" stroke="rgba(0, 0, 0, 1)" stroke-width="2"></path><path d="M49.4 -73.63 a7.5 7.5 0 1 0 15 0 a7.5 7.5 0 1 0 -15 0zM114.35 -36.13 a7.5 7.5 0 1 0 15 0 a7.5 7.5 0 1 0 -15 0zM114.35 38.87 a7.5 7.5 0 1 0 15 0 a7.5 7.5 0 1 0 -15 0zM49.4 76.37 a7.5 7.5 0 1 0 15 0 a7.5 7.5 0 1 0 -15 0zM-15.55 38.87 a7.5 7.5 0 1 0 15 0 a7.5 7.5 0 1 0 -15 0zM-15.55 -36.13 a7.5 7.5 0 1 0 15 0 a7.5 7.5 0 1 0 -15 0zM49.4 151.37 a7.5 7.5 0 1 0 15 0 a7.5 7.5 0 1 0 -15 0zM114.35 188.87 a7.5 7.5 0 1 0 15 0 a7.5 7.5 0 1 0 -15 0zM114.35 263.87 a7.5 7.5 0 1 0 15 0 a7.5 7.5 0 1 0 -15 0zM49.4 301.37 a7.5 7.5 0 1 0 15 0 a7.5 7.5 0 1 0 -15 0zM-15.55 263.87 a7.5 7.5 0 1 0 15 0 a7.5 7.5 0 1 0 -15 0zM-15.55 188.87 a7.5 7.5 0 1 0 15 0 a7.5 7.5 0 1 0 -15 0zM114.35 488.87 a7.5 7.5 0 1 0 15 0 a7.5 7.5 0 1 0 -15 0zM179.31 526.37 a7.5 7.5 0 1 0 15 0 a7.5 7.5 0 1 0 -15 0zM179.31 601.37 a7.5 7.5 0 1 0 15 0 a7.5 7.5 0 1 0 -15 0zM114.35 638.87 a7.5 7.5 0 1 0 15 0 a7.5 7.5 0 1 0 -15 0zM49.4 601.37 a7.5 7.5 0 1 0 15 0 a7.5 7.5 0 1 0 -15 0zM49.4 526.37 a7.5 7.5 0 1 0 15 0 a7.5 7.5 0 1 0 -15 0zM244.26 263.87 a7.5 7.5 0 1 0 15 0 a7.5 7.5 0 1 0 -15 0zM309.21 301.37 a7.5 7.5 0 1 0 15 0 a7.5 7.5 0 1 0 -15 0zM309.21 376.37 a7.5 7.5 0 1 0 15 0 a7.5 7.5 0 1 0 -15 0zM244.26 413.87 a7.5 7.5 0 1 0 15 0 a7.5 7.5 0 1 0 -15 0zM179.31 376.37 a7.5 7.5 0 1 0 15 0 a7.5 7.5 0 1 0 -15 0zM179.31 301.37 a7.5 7.5 0 1 0 15 0 a7.5 7.5 0 1 0 -15 0zM309.21 -73.63 a7.5 7.5 0 1 0 15 0 a7.5 7.5 0 1 0 -15 0zM374.17 -36.13 a7.5 7.5 0 1 0 15 0 a7.5 7.5 0 1 0 -15 0zM374.17 38.87 a7.5 7.5 0 1 0 15 0 a7.5 7.5 0 1 0 -15 0zM309.21 76.37 a7.5 7.5 0 1 0 15 0 a7.5 7.5 0 1 0 -15 0zM244.26 38.87 a7.5 7.5 0 1 0 15 0 a7.5 7.5 0 1 0 -15 0zM244.26 -36.13 a7.5 7.5 0 1 0 15 0 a7.5 7.5 0 1 0 -15 0zM374.17 413.87 a7.5 7.5 0 1 0 15 0 a7.5 7.5 0 1 0 -15 0zM374.17 488.87 a7.5 7.5 0 1 0 15 0 a7.5 7.5 0 1 0 -15 0zM309.21 526.37 a7.5 7.5 0 1 0 15 0 a7.5 7.5 0 1 0 -15 0zM244.26 488.87 a7.5 7.5 0 1 0 15 0 a7.5 7.5 0 1 0 -15 0zM569.03 -73.63 a7.5 7.5 0 1 0 15 0 a7.5 7.5 0 1 0 -15 0zM633.98 -36.13 a7.5 7.5 0 1 0 15 0 a7.5 7.5 0 1 0 -15 0zM633.98 38.87 a7.5 7.5 0 1 0 15 0 a7.5 7.5 0 1 0 -15 0zM569.03 76.37 a7.5 7.5 0 1 0 15 0 a7.5 7.5 0 1 0 -15 0zM504.08 38.87 a7.5 7.5 0 1 0 15 0 a7.5 7.5 0 1 0 -15 0zM504.08 -36.13 a7.5 7.5 0 1 0 15 0 a7.5 7.5 0 1 0 -15 0zM569.03 376.37 a7.5 7.5 0 1 0 15 0 a7.5 7.5 0 1 0 -15 0zM633.98 413.87 a7.5 7.5 0 1 0 15 0 a7.5 7.5 0 1 0 -15 0zM633.98 488.87 a7.5 7.5 0 1 0 15 0 a7.5 7.5 0 1 0 -15 0zM569.03 526.37 a7.5 7.5 0 1 0 15 0 a7.5 7.5 0 1 0 -15 0zM504.08 488.87 a7.5 7.5 0 1 0 15 0 a7.5 7.5 0 1 0 -15 0zM504.08 413.87 a7.5 7.5 0 1 0 15 0 a7.5 7.5 0 1 0 -15 0zM698.94 -73.63 a7.5 7.5 0 1 0 15 0 a7.5 7.5 0 1 0 -15 0zM763.89 -36.13 a7.5 7.5 0 1 0 15 0 a7.5 7.5 0 1 0 -15 0zM763.89 38.87 a7.5 7.5 0 1 0 15 0 a7.5 7.5 0 1 0 -15 0zM698.94 76.37 a7.5 7.5 0 1 0 15 0 a7.5 7.5 0 1 0 -15 0zM698.94 151.37 a7.5 7.5 0 1 0 15 0 a7.5 7.5 0 1 0 -15 0zM763.89 188.87 a7.5 7.5 0 1 0 15 0 a7.5 7.5 0 1 0 -15 0zM763.89 263.87 a7.5 7.5 0 1 0 15 0 a7.5 7.5 0 1 0 -15 0zM698.94 301.37 a7.5 7.5 0 1 0 15 0 a7.5 7.5 0 1 0 -15 0zM633.98 263.87 a7.5 7.5 0 1 0 15 0 a7.5 7.5 0 1 0 -15 0zM633.98 188.87 a7.5 7.5 0 1 0 15 0 a7.5 7.5 0 1 0 -15 0zM828.84 -73.63 a7.5 7.5 0 1 0 15 0 a7.5 7.5 0 1 0 -15 0zM893.8 -36.13 a7.5 7.5 0 1 0 15 0 a7.5 7.5 0 1 0 -15 0zM893.8 38.87 a7.5 7.5 0 1 0 15 0 a7.5 7.5 0 1 0 -15 0zM828.84 76.37 a7.5 7.5 0 1 0 15 0 a7.5 7.5 0 1 0 -15 0zM958.75 -73.63 a7.5 7.5 0 1 0 15 0 a7.5 7.5 0 1 0 -15 0zM1023.71 -36.13 a7.5 7.5 0 1 0 15 0 a7.5 7.5 0 1 0 -15 0zM1023.71 38.87 a7.5 7.5 0 1 0 15 0 a7.5 7.5 0 1 0 -15 0zM958.75 76.37 a7.5 7.5 0 1 0 15 0 a7.5 7.5 0 1 0 -15 0zM1088.66 -73.63 a7.5 7.5 0 1 0 15 0 a7.5 7.5 0 1 0 -15 0zM1153.61 -36.13 a7.5 7.5 0 1 0 15 0 a7.5 7.5 0 1 0 -15 0zM1153.61 38.87 a7.5 7.5 0 1 0 15 0 a7.5 7.5 0 1 0 -15 0zM1088.66 76.37 a7.5 7.5 0 1 0 15 0 a7.5 7.5 0 1 0 -15 0zM1153.61 263.87 a7.5 7.5 0 1 0 15 0 a7.5 7.5 0 1 0 -15 0zM1218.57 301.37 a7.5 7.5 0 1 0 15 0 a7.5 7.5 0 1 0 -15 0zM1218.57 376.37 a7.5 7.5 0 1 0 15 0 a7.5 7.5 0 1 0 -15 0zM1153.61 413.87 a7.5 7.5 0 1 0 15 0 a7.5 7.5 0 1 0 -15 0zM1088.66 376.37 a7.5 7.5 0 1 0 15 0 a7.5 7.5 0 1 0 -15 0zM1088.66 301.37 a7.5 7.5 0 1 0 15 0 a7.5 7.5 0 1 0 -15 0zM1153.61 488.87 a7.5 7.5 0 1 0 15 0 a7.5 7.5 0 1 0 -15 0zM1088.66 526.37 a7.5 7.5 0 1 0 15 0 a7.5 7.5 0 1 0 -15 0zM1023.71 488.87 a7.5 7.5 0 1 0 15 0 a7.5 7.5 0 1 0 -15 0zM1023.71 413.87 a7.5 7.5 0 1 0 15 0 a7.5 7.5 0 1 0 -15 0zM1218.57 -73.63 a7.5 7.5 0 1 0 15 0 a7.5 7.5 0 1 0 -15 0zM1283.52 -36.13 a7.5 7.5 0 1 0 15 0 a7.5 7.5 0 1 0 -15 0zM1283.52 38.87 a7.5 7.5 0 1 0 15 0 a7.5 7.5 0 1 0 -15 0zM1218.57 76.37 a7.5 7.5 0 1 0 15 0 a7.5 7.5 0 1 0 -15 0zM1348.47 76.37 a7.5 7.5 0 1 0 15 0 a7.5 7.5 0 1 0 -15 0zM1348.47 151.37 a7.5 7.5 0 1 0 15 0 a7.5 7.5 0 1 0 -15 0zM1283.52 188.87 a7.5 7.5 0 1 0 15 0 a7.5 7.5 0 1 0 -15 0zM1218.57 151.37 a7.5 7.5 0 1 0 15 0 a7.5 7.5 0 1 0 -15 0zM1283.52 263.87 a7.5 7.5 0 1 0 15 0 a7.5 7.5 0 1 0 -15 0zM1153.61 188.87 a7.5 7.5 0 1 0 15 0 a7.5 7.5 0 1 0 -15 0zM1283.52 488.87 a7.5 7.5 0 1 0 15 0 a7.5 7.5 0 1 0 -15 0zM1348.47 526.37 a7.5 7.5 0 1 0 15 0 a7.5 7.5 0 1 0 -15 0zM1348.47 601.37 a7.5 7.5 0 1 0 15 0 a7.5 7.5 0 1 0 -15 0zM1283.52 638.87 a7.5 7.5 0 1 0 15 0 a7.5 7.5 0 1 0 -15 0zM1218.57 601.37 a7.5 7.5 0 1 0 15 0 a7.5 7.5 0 1 0 -15 0zM1218.57 526.37 a7.5 7.5 0 1 0 15 0 a7.5 7.5 0 1 0 -15 0zM1348.48 151.37 a7.5 7.5 0 1 0 15 0 a7.5 7.5 0 1 0 -15 0zM1413.43 188.87 a7.5 7.5 0 1 0 15 0 a7.5 7.5 0 1 0 -15 0zM1413.43 263.87 a7.5 7.5 0 1 0 15 0 a7.5 7.5 0 1 0 -15 0zM1348.48 301.37 a7.5 7.5 0 1 0 15 0 a7.5 7.5 0 1 0 -15 0zM1478.38 301.37 a7.5 7.5 0 1 0 15 0 a7.5 7.5 0 1 0 -15 0zM1478.38 376.37 a7.5 7.5 0 1 0 15 0 a7.5 7.5 0 1 0 -15 0zM1413.43 413.87 a7.5 7.5 0 1 0 15 0 a7.5 7.5 0 1 0 -15 0zM1348.48 376.37 a7.5 7.5 0 1 0 15 0 a7.5 7.5 0 1 0 -15 0zM1413.43 488.87 a7.5 7.5 0 1 0 15 0 a7.5 7.5 0 1 0 -15 0zM1478.38 526.37 a7.5 7.5 0 1 0 15 0 a7.5 7.5 0 1 0 -15 0zM1478.38 601.37 a7.5 7.5 0 1 0 15 0 a7.5 7.5 0 1 0 -15 0zM1413.43 638.87 a7.5 7.5 0 1 0 15 0 a7.5 7.5 0 1 0 -15 0zM1348.48 601.37 a7.5 7.5 0 1 0 15 0 a7.5 7.5 0 1 0 -15 0zM1348.48 526.37 a7.5 7.5 0 1 0 15 0 a7.5 7.5 0 1 0 -15 0zM1478.38 -73.63 a7.5 7.5 0 1 0 15 0 a7.5 7.5 0 1 0 -15 0zM1543.34 -36.13 a7.5 7.5 0 1 0 15 0 a7.5 7.5 0 1 0 -15 0zM1543.34 38.87 a7.5 7.5 0 1 0 15 0 a7.5 7.5 0 1 0 -15 0zM1478.38 76.37 a7.5 7.5 0 1 0 15 0 a7.5 7.5 0 1 0 -15 0zM1413.43 38.87 a7.5 7.5 0 1 0 15 0 a7.5 7.5 0 1 0 -15 0zM1413.43 -36.13 a7.5 7.5 0 1 0 15 0 a7.5 7.5 0 1 0 -15 0zM1478.38 151.37 a7.5 7.5 0 1 0 15 0 a7.5 7.5 0 1 0 -15 0zM1543.34 188.87 a7.5 7.5 0 1 0 15 0 a7.5 7.5 0 1 0 -15 0zM1543.34 263.87 a7.5 7.5 0 1 0 15 0 a7.5 7.5 0 1 0 -15 0zM1543.34 488.87 a7.5 7.5 0 1 0 15 0 a7.5 7.5 0 1 0 -15 0zM1608.29 526.37 a7.5 7.5 0 1 0 15 0 a7.5 7.5 0 1 0 -15 0zM1608.29 601.37 a7.5 7.5 0 1 0 15 0 a7.5 7.5 0 1 0 -15 0zM1543.34 638.87 a7.5 7.5 0 1 0 15 0 a7.5 7.5 0 1 0 -15 0z" fill="rgba(0, 0, 0, 1)"></path><path d="M48.54 -10.05L91.84 14.95L91.84 64.95L48.54 89.95L5.24 64.95L5.24 14.95zM91.84 514.95L135.15 539.95L135.15 589.95L91.84 614.95L48.54 589.95L48.54 539.95zM135.15 139.95L178.45 164.95L178.45 214.95L135.15 239.95L91.84 214.95L91.84 164.95zM221.75 -10.05L265.05 14.95L265.05 64.95L221.75 89.95L178.45 64.95L178.45 14.95zM221.75 139.95L265.05 164.95L265.05 214.95L221.75 239.95L178.45 214.95L178.45 164.95zM394.96 139.95L438.26 164.95L438.26 214.95L394.96 239.95L351.66 214.95L351.66 164.95zM438.26 214.95L481.57 239.95L481.57 289.95L438.26 314.95L394.96 289.95L394.96 239.95zM481.57 139.95L524.87 164.95L524.87 214.95L481.57 239.95L438.26 214.95L438.26 164.95zM568.17 -10.05L611.47 14.95L611.47 64.95L568.17 89.95L524.87 64.95L524.87 14.95zM654.77 139.95L698.08 164.95L698.08 214.95L654.77 239.95L611.47 214.95L611.47 164.95zM698.08 214.95L741.38 239.95L741.38 289.95L698.08 314.95L654.77 289.95L654.77 239.95zM698.08 514.95L741.38 539.95L741.38 589.95L698.08 614.95L654.77 589.95L654.77 539.95zM741.38 -10.05L784.68 14.95L784.68 64.95L741.38 89.95L698.08 64.95L698.08 14.95zM741.38 439.95L784.68 464.95L784.68 514.95L741.38 539.95L698.08 514.95L698.08 464.95zM871.29 214.95L914.59 239.95L914.59 289.95L871.29 314.95L827.99 289.95L827.99 239.95zM957.89 64.95L1001.2 89.95L1001.2 139.95L957.89 164.95L914.59 139.95L914.59 89.95zM914.59 439.95L957.89 464.95L957.89 514.95L914.59 539.95L871.29 514.95L871.29 464.95zM957.89 514.95L1001.2 539.95L1001.2 589.95L957.89 614.95L914.59 589.95L914.59 539.95zM1001.2 -10.05L1044.5 14.95L1044.5 64.95L1001.2 89.95L957.89 64.95L957.89 14.95zM1044.5 514.95L1087.8 539.95L1087.8 589.95L1044.5 614.95L1001.2 589.95L1001.2 539.95zM1217.71 364.95L1261.01 389.95L1261.01 439.95L1217.71 464.95L1174.4 439.95L1174.4 389.95zM1261.01 -10.05L1304.31 14.95L1304.31 64.95L1261.01 89.95L1217.71 64.95L1217.71 14.95zM1261.01 139.95L1304.31 164.95L1304.31 214.95L1261.01 239.95L1217.71 214.95L1217.71 164.95zM1477.52 214.95L1520.83 239.95L1520.83 289.95L1477.52 314.95L1434.22 289.95L1434.22 239.95z" stroke="rgba(0, 0, 0, 1)" stroke-width="2"></path></g><defs><mask id="SvgjsMask1003"><rect width="1440" height="560" fill="#ffffff"></rect></mask></defs></svg>